<?xml version="1.0" encoding="UTF-8" standalone="no"?>
<svg
   xmlns:dc="http://purl.org/dc/elements/1.1/"
   xmlns:cc="http://creativecommons.org/ns#"
   xmlns:rdf="http://www.w3.org/1999/02/22-rdf-syntax-ns#"
   xmlns:svg="http://www.w3.org/2000/svg"
   xmlns="http://www.w3.org/2000/svg"
   xmlns:xlink="http://www.w3.org/1999/xlink"
   xmlns:sodipodi="http://sodipodi.sourceforge.net/DTD/sodipodi-0.dtd"
   xmlns:inkscape="http://www.inkscape.org/namespaces/inkscape"
   inkscape:export-ydpi="100"
   inkscape:export-xdpi="100"
   inkscape:export-filename="D:\NINC\NINC_2013\000_SPOTTERAPPS\ci\spottern_logo_v02.png"
   sodipodi:docname="SPOTTERON_ci2017_LOGO_full_final_pathes.svg"
   inkscape:version="1.0rc1 (09960d6f05, 2020-04-09)"
   version="1.1"
   id="svg3474"
   height="131.76228"
   width="589.18439">
  <defs
     id="defs3476">
    <linearGradient
       id="linearGradient4134">
      <stop
         style="stop-color:#d8eaee;stop-opacity:1;"
         offset="0"
         id="stop4136" />
      <stop
         id="stop4253"
         offset="0.32922983"
         style="stop-color:#e4edee;stop-opacity:1;" />
      <stop
         style="stop-color:#95bec3;stop-opacity:1;"
         offset="1"
         id="stop4138" />
    </linearGradient>
    <linearGradient
       id="linearGradient4126">
      <stop
         id="stop4128"
         offset="0"
         style="stop-color:#6f1818;stop-opacity:1;" />
      <stop
         id="stop4130"
         offset="1"
         style="stop-color:#e4412f;stop-opacity:1;" />
    </linearGradient>
    <linearGradient
       id="linearGradient4949">
      <stop
         id="stop4951"
         offset="0"
         style="stop-color:#cda338;stop-opacity:1;" />
      <stop
         id="stop4953"
         offset="1"
         style="stop-color:#936b1b;stop-opacity:1;" />
    </linearGradient>
    <linearGradient
       y2="-730.44849"
       x2="2218.519"
       y1="-634.6355"
       x1="2219.9985"
       gradientTransform="matrix(1.4428278,0,0,1.4428278,96.000292,2430.6913)"
       gradientUnits="userSpaceOnUse"
       id="linearGradient4579"
       xlink:href="#linearGradient4126"
       inkscape:collect="always" />
  </defs>
  <sodipodi:namedview
     inkscape:document-rotation="0"
     inkscape:window-maximized="1"
     inkscape:window-y="-8"
     inkscape:window-x="1912"
     inkscape:window-height="1177"
     inkscape:window-width="1858"
     inkscape:guide-bbox="true"
     showguides="true"
     showgrid="false"
     inkscape:current-layer="layer1"
     inkscape:document-units="px"
     inkscape:cy="9.5121942"
     inkscape:cx="123.62507"
     inkscape:zoom="1.4086933"
     inkscape:pageshadow="2"
     inkscape:pageopacity="0.0"
     borderopacity="1.0"
     bordercolor="#666666"
     pagecolor="#ffffff"
     id="base">
    <sodipodi:guide
       inkscape:locked="false"
       id="guide3611"
       position="839.02208,952.71206"
       orientation="0,1" />
    <sodipodi:guide
       inkscape:locked="false"
       id="guide4489"
       position="798.31541,548.90183"
       orientation="0,1" />
    <sodipodi:guide
       inkscape:locked="false"
       id="guide4246"
       position="1660.9342,-1252.988"
       orientation="0,1" />
    <sodipodi:guide
       inkscape:locked="false"
       id="guide4249"
       position="1782.2031,-1183.6915"
       orientation="0,1" />
    <sodipodi:guide
       inkscape:locked="false"
       id="guide4292"
       position="1656.6916,-1534.0629"
       orientation="0,1" />
    <sodipodi:guide
       inkscape:locked="false"
       id="guide4294"
       position="2249.7947,-1584.494"
       orientation="0,1" />
    <sodipodi:guide
       inkscape:locked="false"
       id="guide4310"
       position="1906.6538,-1953.0237"
       orientation="0,1" />
    <sodipodi:guide
       inkscape:locked="false"
       id="guide4312"
       position="1930.3419,-1870.2922"
       orientation="0,1" />
    <sodipodi:guide
       inkscape:locked="false"
       id="guide4314"
       position="1747.2013,-1636.5934"
       orientation="0,1" />
    <sodipodi:guide
       inkscape:locked="false"
       id="guide5418"
       orientation="0,1"
       position="394.50598,322.79947" />
    <sodipodi:guide
       inkscape:locked="false"
       id="guide5420"
       orientation="0,1"
       position="272.88361,361.69034" />
  </sodipodi:namedview>
  <metadata
     id="metadata3479">
    <rdf:RDF>
      <cc:Work
         rdf:about="">
        <dc:format>image/svg+xml</dc:format>
        <dc:type
           rdf:resource="http://purl.org/dc/dcmitype/StillImage" />
        <dc:title></dc:title>
      </cc:Work>
    </rdf:RDF>
  </metadata>
  <g
     transform="translate(-84.205313,-836.10585)"
     style="display:inline"
     id="layer1"
     inkscape:groupmode="layer"
     inkscape:label="Layer 1">
    <g
       style="font-style:normal;font-weight:normal;line-height:0%;font-family:sans-serif;letter-spacing:0px;word-spacing:0px;fill:#2c89a0;fill-opacity:1;stroke:none"
       id="text4260"
       aria-label="TTERON">
      <path
         id="path880"
         style="font-style:normal;font-variant:normal;font-weight:800;font-stretch:normal;font-size:106.435px;line-height:125%;font-family:'Ek Mukta';-inkscape-font-specification:'Ek Mukta Ultra-Bold';text-align:start;letter-spacing:0px;writing-mode:lr-tb;text-anchor:start;fill:#2c89a0;fill-opacity:1"
         d="m 358.96382,853.15414 v 12.55933 H 340.657 v 54.49472 H 324.47888 V 865.71347 H 306.5978 v -12.55933 z" />
      <path
         id="path882"
         style="font-style:normal;font-variant:normal;font-weight:800;font-stretch:normal;font-size:106.435px;line-height:125%;font-family:'Ek Mukta';-inkscape-font-specification:'Ek Mukta Ultra-Bold';text-align:start;letter-spacing:0px;writing-mode:lr-tb;text-anchor:start;fill:#2c89a0;fill-opacity:1"
         d="m 415.09165,853.15414 v 12.55933 h -18.30682 v 54.49472 h -16.17812 v -54.49472 h -17.88108 v -12.55933 z" />
      <path
         id="path884"
         style="font-style:normal;font-variant:normal;font-weight:800;font-stretch:normal;font-size:106.435px;line-height:125%;font-family:'Ek Mukta';-inkscape-font-specification:'Ek Mukta Ultra-Bold';text-align:start;letter-spacing:0px;writing-mode:lr-tb;text-anchor:start;fill:#2c89a0;fill-opacity:1"
         d="m 423.15077,853.15414 h 44.7027 v 12.34646 h -28.52458 v 13.73012 h 25.75727 v 12.24002 h -25.75727 v 16.39099 h 28.84388 v 12.34646 h -45.022 z" />
      <path
         id="path886"
         style="font-style:normal;font-variant:normal;font-weight:800;font-stretch:normal;font-size:106.435px;line-height:125%;font-family:'Ek Mukta';-inkscape-font-specification:'Ek Mukta Ultra-Bold';text-align:start;letter-spacing:0px;writing-mode:lr-tb;text-anchor:start;fill:#2c89a0;fill-opacity:1"
         d="m 478.86284,853.15414 h 26.60875 q 5.74749,0 10.11133,1.70296 4.47027,1.59653 7.34401,4.47027 2.98018,2.87375 4.47027,6.70541 1.49009,3.83166 1.49009,8.19549 0,4.15097 -1.27722,7.34402 -1.17078,3.08661 -3.08661,5.42818 -1.91583,2.34157 -4.15097,3.83166 -2.23513,1.49009 -4.15096,2.34157 l 16.07168,27.03449 h -18.62612 l -11.92072,-24.16074 h -6.70541 v 24.16074 h -16.17812 z m 16.17812,30.65328 h 4.89601 q 5.53462,0 8.94054,-2.23513 3.40592,-2.23514 3.40592,-7.23758 0,-4.15097 -2.76731,-6.59897 -2.76731,-2.44801 -7.98262,-2.44801 h -6.49254 z" />
      <path
         id="path888"
         style="font-style:normal;font-variant:normal;font-weight:800;font-stretch:normal;font-size:106.435px;line-height:125%;font-family:'Ek Mukta';-inkscape-font-specification:'Ek Mukta Ultra-Bold';text-align:start;letter-spacing:0px;writing-mode:lr-tb;text-anchor:start;fill:#2c89a0;fill-opacity:1"
         d="m 571.9918,851.87692 q 7.23758,0 13.41081,2.44801 6.17323,2.34157 10.6435,6.81184 4.47027,4.47027 6.91828,10.9628 2.55444,6.49254 2.55444,14.68803 0,7.98263 -2.66088,14.36873 -2.55444,6.3861 -7.13114,10.9628 -4.47027,4.47027 -10.74994,6.91828 -6.17323,2.34157 -13.41081,2.34157 -7.23758,0 -13.41081,-2.34157 -6.17323,-2.34157 -10.6435,-6.70541 -4.47027,-4.47027 -7.02471,-10.85637 -2.448,-6.49253 -2.448,-14.68803 0,-7.98262 2.55444,-14.36872 2.55444,-6.49254 7.13114,-11.06924 4.57671,-4.57671 10.74994,-7.02471 6.27966,-2.44801 13.51724,-2.44801 z m -16.92316,34.91068 q 0,5.64106 1.27722,9.89846 1.38365,4.2574 3.72522,7.02471 2.34157,2.76731 5.32175,4.15096 3.08662,1.38366 6.59897,1.38366 3.40592,0 6.3861,-1.38366 3.08662,-1.38365 5.32175,-4.15096 2.23514,-2.76731 3.51236,-7.02471 1.27722,-4.2574 1.27722,-9.89846 0,-5.85392 -1.38366,-10.11132 -1.27722,-4.36384 -3.61879,-7.13115 -2.34157,-2.76731 -5.42818,-4.15096 -2.98018,-1.38366 -6.49254,-1.38366 -3.40592,0 -6.49253,1.49009 -2.98018,1.38366 -5.21532,4.2574 -2.23513,2.87375 -3.51235,7.13115 -1.27722,4.2574 -1.27722,9.89845 z" />
      <path
         id="path890"
         style="font-style:normal;font-variant:normal;font-weight:800;font-stretch:normal;font-size:106.435px;line-height:125%;font-family:'Ek Mukta';-inkscape-font-specification:'Ek Mukta Ultra-Bold';text-align:start;letter-spacing:0px;writing-mode:lr-tb;text-anchor:start;fill:#2c89a0;fill-opacity:1"
         d="m 616.68786,853.15414 h 14.9009 l 14.68803,22.45779 q 3.93809,6.06679 7.55688,12.45289 3.72523,6.27967 5.74749,11.38855 h 0.21287 q -0.53217,-6.3861 -0.63861,-12.7722 -0.10643,-6.49254 -0.10643,-12.87864 v -20.64839 h 14.9009 v 67.05405 h -14.9009 l -15.53951,-22.88352 q -3.83166,-5.64106 -7.02471,-11.49498 -3.19305,-5.85393 -5.42819,-12.34646 h -0.21287 q 0.53218,6.7054 0.63861,12.87863 0.10644,6.17323 0.10644,12.55933 v 21.287 h -14.9009 z" />
    </g>
    <g
       style="font-style:normal;font-weight:normal;line-height:0%;font-family:sans-serif;letter-spacing:0px;word-spacing:0px;fill:#2c89a0;fill-opacity:1;stroke:none"
       id="text4264"
       aria-label="SP">
      <path
         id="path893"
         style="font-style:normal;font-variant:normal;font-weight:800;font-stretch:normal;font-size:106.435px;line-height:125%;font-family:'Ek Mukta';-inkscape-font-specification:'Ek Mukta Ultra-Bold';text-align:start;writing-mode:lr-tb;text-anchor:start;fill:#2c89a0;fill-opacity:1"
         d="m 109.64329,852.37692 q 7.02471,0 12.13359,1.49009 5.10888,1.38366 8.8341,3.40592 l -3.61879,11.81429 q -4.15096,-2.1287 -8.40836,-3.29949 -4.15097,-1.27722 -7.98263,-1.27722 -4.89601,0 -7.45045,1.8094 -2.55444,1.80939 -2.55444,4.78957 0,3.40592 2.44801,5.00245 2.448,1.49009 7.55688,3.19305 l 6.27967,2.02226 q 3.72522,1.27722 6.91827,3.19305 3.19305,1.8094 5.42819,4.2574 2.34157,2.44801 3.61879,5.53462 1.27722,3.08662 1.27722,6.70541 0,4.2574 -1.59653,8.08906 -1.59652,3.72522 -4.89601,6.59897 -3.19305,2.87374 -8.19549,4.5767 -4.89601,1.59653 -11.60142,1.59653 -6.27966,0 -12.027154,-1.27722 -5.641054,-1.38366 -10.430629,-3.83166 l 3.61879,-11.81429 q 4.576704,2.23514 8.940539,3.51236 4.363834,1.27722 9.153414,1.27722 5.64105,0 8.08906,-1.8094 2.55444,-1.91583 2.55444,-5.10888 0,-1.06435 -0.42574,-2.1287 -0.42574,-1.06435 -1.70296,-2.1287 -1.17079,-1.06435 -3.40592,-2.02226 -2.1287,-1.06435 -5.53462,-2.1287 l -5.21532,-1.8094 q -3.725224,-1.38365 -6.918274,-3.08661 -3.19305,-1.70296 -5.534619,-4.04453 -2.235135,-2.34157 -3.512355,-5.42819 -1.27722,-3.08661 -1.27722,-7.34401 0,-4.36384 1.596525,-8.08906 1.70296,-3.72523 4.89601,-6.3861 3.299484,-2.76731 7.982624,-4.2574 4.789579,-1.59653 10.962809,-1.59653 z" />
      <path
         id="path895"
         style="font-style:normal;font-variant:normal;font-weight:800;font-stretch:normal;font-size:106.435px;line-height:125%;font-family:'Ek Mukta';-inkscape-font-specification:'Ek Mukta Ultra-Bold';text-align:start;writing-mode:lr-tb;text-anchor:start;fill:#2c89a0;fill-opacity:1"
         d="m 145.17927,853.65414 h 24.26718 q 6.06679,0 10.9628,1.38366 4.89601,1.38365 8.30193,4.04453 3.51236,2.66087 5.32175,6.49253 1.91583,3.72523 1.91583,8.62124 0,5.85392 -2.23513,10.11132 -2.23514,4.2574 -6.0668,7.13115 -3.72522,2.76731 -8.8341,4.15096 -5.00245,1.27722 -10.6435,1.27722 h -6.81184 v 23.84144 h -16.17812 z m 16.17812,30.97259 h 5.85392 q 2.34157,0 4.57671,-0.53218 2.23513,-0.53217 3.83166,-1.59652 1.70296,-1.17079 2.66087,-2.98018 1.06435,-1.8094 1.06435,-4.47027 0,-4.57671 -3.19305,-6.91828 -3.08661,-2.34157 -8.30193,-2.34157 h -6.49253 z" />
    </g>
  </g>
  <g
     transform="translate(-84.205313,-836.10585)"
     style="display:inline"
     inkscape:label="triangle"
     id="layer3"
     inkscape:groupmode="layer" />
  <g
     transform="translate(-84.205313,-836.10585)"
     inkscape:label="logo shape"
     id="layer4"
     inkscape:groupmode="layer">
    <g
       style="display:inline"
       inkscape:label="logo v2"
       id="layer2"
       inkscape:groupmode="layer">
      <path
         id="path4855"
         d="m 273.64292,879.2368 -6.03441,5.25527 c -1.89413,13.08639 -12.5961,23.11035 -25.52168,23.11035 -0.43768,0 -0.87914,-0.008 -1.31127,-0.0253 3.68845,2.14317 7.92517,3.37108 12.43305,3.37108 13.77561,0 25.02396,-11.39376 25.77667,-25.73788 l -5.34236,-5.97316 z"
         style="display:inline;opacity:1;fill:#2c89a0;fill-opacity:1;stroke:none"
         inkscape:connector-curvature="0"
         inkscape:export-filename="D:\NINC\NINC_2013\000_SPOTTERAPPS\ci\spottern_logo_v02_notriangle.png"
         inkscape:export-xdpi="1000.0054"
         inkscape:export-ydpi="1000.0054" />
      <path
         style="display:inline;opacity:1;fill:#252525;fill-opacity:1;stroke:none;stroke-width:0.64999998;stroke-miterlimit:4;stroke-dasharray:none;stroke-dashoffset:0;stroke-opacity:1"
         d="m 252.2013,836.10585 c -26.42593,0 -47.84842,21.42252 -47.84842,47.84845 0,32.50343 27.76046,45.89546 47.84842,59.28742 20.08806,-13.39196 47.84843,-26.78399 47.84843,-59.28742 0,-26.42593 -21.42242,-47.84845 -47.84843,-47.84845 z m 0,12.13645 c 19.7232,0 35.712,15.98878 35.712,35.712 0,19.72311 -15.9888,35.71195 -35.712,35.71195 -19.72313,0 -35.71191,-15.98884 -35.71191,-35.71195 0,-19.72322 15.98878,-35.712 35.71191,-35.712 z"
         id="path4857"
         inkscape:connector-curvature="0"
         sodipodi:nodetypes="sscsssssss"
         inkscape:export-xdpi="1000.0054"
         inkscape:export-ydpi="1000.0054" />
      <g
         transform="translate(-8.0078201,313.30596)"
         id="text15184"
         style="font-style:normal;font-weight:normal;font-size:40px;line-height:125%;font-family:Sans;letter-spacing:0px;word-spacing:0px;fill:#2c89a0;fill-opacity:1;stroke:none;stroke-width:1px;stroke-linecap:butt;stroke-linejoin:miter;stroke-opacity:1">
        <path
           inkscape:connector-curvature="0"
           id="path4173"
           style="font-style:normal;font-variant:normal;font-weight:300;font-stretch:normal;font-family:'Ek Mukta';-inkscape-font-specification:'Ek Mukta Light';fill:#2c89a0;fill-opacity:1"
           d="m 369.09686,626.56218 h 2.92 l 3.24,11.84 0.92,4.72 h 0.12 l 1.12,-4.72 3.44,-11.84 h 3 l 3.4,11.84 1.12,4.72 h 0.12 l 1.08,-4.72 3.2,-11.84 h 2.8 l -5.52,18.8 h -3.2 l -3.4,-11.92 -1.12,-4.84 -1.16,4.84 -3.48,11.92 h -3 z" />
        <path
           inkscape:connector-curvature="0"
           id="path4175"
           style="font-style:normal;font-variant:normal;font-weight:300;font-stretch:normal;font-family:'Ek Mukta';-inkscape-font-specification:'Ek Mukta Light';fill:#2c89a0;fill-opacity:1"
           d="m 396.44061,626.56218 h 2.92 l 3.24,11.84 0.92,4.72 h 0.12 l 1.12,-4.72 3.44,-11.84 h 3 l 3.4,11.84 1.12,4.72 h 0.12 l 1.08,-4.72 3.2,-11.84 h 2.8 l -5.52,18.8 h -3.2 l -3.4,-11.92 -1.12,-4.84 -1.16,4.84 -3.48,11.92 h -3 z" />
        <path
           inkscape:connector-curvature="0"
           id="path4177"
           style="font-style:normal;font-variant:normal;font-weight:300;font-stretch:normal;font-family:'Ek Mukta';-inkscape-font-specification:'Ek Mukta Light';fill:#2c89a0;fill-opacity:1"
           d="m 423.78436,626.56218 h 2.92 l 3.24,11.84 0.92,4.72 h 0.12 l 1.12,-4.72 3.44,-11.84 h 3 l 3.4,11.84 1.12,4.72 h 0.12 l 1.08,-4.72 3.2,-11.84 h 2.8 l -5.52,18.8 h -3.2 l -3.4,-11.92 -1.12,-4.84 -1.16,4.84 -3.48,11.92 h -3 z" />
        <path
           inkscape:connector-curvature="0"
           id="path4179"
           style="font-style:normal;font-variant:normal;font-weight:300;font-stretch:normal;font-family:'Ek Mukta';-inkscape-font-specification:'Ek Mukta Light';fill:#2c89a0;fill-opacity:1"
           d="m 452.56811,643.56218 q 0,-0.92 0.56,-1.52 0.6,-0.6 1.44,-0.6 0.84,0 1.4,0.6 0.6,0.6 0.6,1.52 0,1 -0.6,1.6 -0.56,0.56 -1.4,0.56 -0.84,0 -1.44,-0.56 -0.56,-0.6 -0.56,-1.6 z" />
        <path
           inkscape:connector-curvature="0"
           id="path4181"
           style="font-style:normal;font-variant:normal;font-weight:300;font-stretch:normal;font-family:'Ek Mukta';-inkscape-font-specification:'Ek Mukta Light';fill:#2c89a0;fill-opacity:1"
           d="m 470.75749,629.52218 q -1.16,-0.56 -2.24,-0.8 -1.04,-0.24 -2.2,-0.24 -2.04,0 -3.04,0.8 -1,0.8 -1,2.08 0,1.16 0.76,1.84 0.8,0.64 2.96,1.28 l 1.2,0.36 q 2.48,0.76 3.76,2.04 1.32,1.28 1.32,3.32 0,2.4 -1.8,3.96 -1.8,1.56 -5.16,1.56 -1.8,0 -3.32,-0.32 -1.52,-0.28 -2.64,-0.84 l 0.72,-2.2 q 1.08,0.56 2.32,0.88 1.24,0.28 2.72,0.28 2.04,0 3.16,-0.76 1.16,-0.8 1.16,-2.32 0,-1.28 -0.92,-2 -0.88,-0.76 -2.88,-1.4 l -1.28,-0.4 q -2.48,-0.8 -3.68,-2 -1.2,-1.24 -1.2,-3.12 0,-1.16 0.48,-2.12 0.48,-0.96 1.36,-1.64 0.88,-0.68 2.04,-1.04 1.2,-0.4 2.64,-0.4 1.32,0 2.76,0.24 1.44,0.24 2.68,0.8 z" />
        <path
           inkscape:connector-curvature="0"
           id="path4183"
           style="font-style:normal;font-variant:normal;font-weight:300;font-stretch:normal;font-family:'Ek Mukta';-inkscape-font-specification:'Ek Mukta Light';fill:#2c89a0;fill-opacity:1"
           d="m 483.93311,645.72218 q -1.28,0 -2.48,-0.36 -1.16,-0.36 -2,-0.96 v 10.16 h -2.76 v -28.24 h 2.32 l 0.4,2.4 q 1,-0.96 2.36,-1.68 1.4,-0.72 3.32,-0.72 1.8,0 3.28,0.6 1.48,0.6 2.52,1.8 1.08,1.16 1.64,2.88 0.6,1.72 0.6,3.92 0,2.64 -0.8,4.56 -0.76,1.92 -2.08,3.2 -1.28,1.24 -2.96,1.84 -1.64,0.6 -3.36,0.6 z m 0.56,-17.12 q -0.88,0 -1.68,0.24 -0.76,0.24 -1.4,0.64 -0.64,0.36 -1.16,0.84 -0.48,0.44 -0.8,0.88 v 11 q 0.92,0.68 1.96,1 1.08,0.32 2.16,0.32 1.24,0 2.44,-0.4 1.2,-0.44 2.12,-1.36 0.92,-0.96 1.48,-2.48 0.6,-1.52 0.6,-3.72 0,-3.28 -1.4,-5.12 -1.4,-1.84 -4.32,-1.84 z" />
        <path
           inkscape:connector-curvature="0"
           id="path4185"
           style="font-style:normal;font-variant:normal;font-weight:300;font-stretch:normal;font-family:'Ek Mukta';-inkscape-font-specification:'Ek Mukta Light';fill:#2c89a0;fill-opacity:1"
           d="m 513.95061,635.76218 q 0,2.36 -0.68,4.24 -0.68,1.84 -1.88,3.12 -1.2,1.28 -2.84,1.96 -1.6,0.64 -3.44,0.64 -1.88,0 -3.48,-0.6 -1.6,-0.64 -2.76,-1.84 -1.16,-1.24 -1.84,-3 -0.68,-1.8 -0.68,-4.12 0,-2.36 0.68,-4.2 0.72,-1.84 1.92,-3.08 1.2,-1.28 2.8,-1.92 1.64,-0.64 3.52,-0.64 1.84,0 3.44,0.6 1.6,0.6 2.76,1.8 1.16,1.2 1.8,2.96 0.68,1.76 0.68,4.08 z m -2.92,0.2 q 0,-1.96 -0.52,-3.36 -0.48,-1.44 -1.32,-2.32 -0.8,-0.92 -1.88,-1.32 -1.04,-0.44 -2.16,-0.44 -1.12,0 -2.2,0.4 -1.04,0.4 -1.88,1.28 -0.8,0.88 -1.32,2.32 -0.48,1.4 -0.48,3.44 0,2.04 0.48,3.48 0.52,1.44 1.36,2.36 0.84,0.88 1.92,1.32 1.08,0.4 2.2,0.4 1.12,0 2.16,-0.36 1.04,-0.4 1.84,-1.28 0.84,-0.92 1.32,-2.36 0.48,-1.44 0.48,-3.56 z" />
        <path
           inkscape:connector-curvature="0"
           id="path4187"
           style="font-style:normal;font-variant:normal;font-weight:300;font-stretch:normal;font-family:'Ek Mukta';-inkscape-font-specification:'Ek Mukta Light';fill:#2c89a0;fill-opacity:1"
           d="m 528.13186,628.68218 h -5.92 v 11.64 q 0,1.64 0.76,2.2 0.8,0.56 2.08,0.56 1,0 1.96,-0.2 0.96,-0.2 1.68,-0.44 l 0.44,2.12 q -0.8,0.32 -2,0.56 -1.2,0.24 -2.6,0.24 -5.12,0 -5.12,-4.68 v -12 h -3.08 v -2.12 h 3.08 v -6 h 2.8 v 6 h 5.92 z" />
        <path
           inkscape:connector-curvature="0"
           id="path4189"
           style="font-style:normal;font-variant:normal;font-weight:300;font-stretch:normal;font-family:'Ek Mukta';-inkscape-font-specification:'Ek Mukta Light';fill:#2c89a0;fill-opacity:1"
           d="m 542.58499,628.68218 h -5.92 v 11.64 q 0,1.64 0.76,2.2 0.8,0.56 2.08,0.56 1,0 1.96,-0.2 0.96,-0.2 1.68,-0.44 l 0.44,2.12 q -0.8,0.32 -2,0.56 -1.2,0.24 -2.6,0.24 -5.12,0 -5.12,-4.68 v -12 h -3.08 v -2.12 h 3.08 v -6 h 2.8 v 6 h 5.92 z" />
        <path
           inkscape:connector-curvature="0"
           id="path4191"
           style="font-style:normal;font-variant:normal;font-weight:300;font-stretch:normal;font-family:'Ek Mukta';-inkscape-font-specification:'Ek Mukta Light';fill:#2c89a0;fill-opacity:1"
           d="m 562.39811,636.16218 h -13.44 v 0.36 q 0,3.32 1.8,5.16 1.8,1.84 4.92,1.84 1.4,0 2.6,-0.2 1.2,-0.24 2.48,-0.76 l 0.6,2.08 q -1.12,0.48 -2.64,0.76 -1.48,0.32 -3.16,0.32 -1.96,0 -3.68,-0.56 -1.72,-0.56 -3.04,-1.72 -1.28,-1.2 -2.04,-3.04 -0.76,-1.84 -0.76,-4.4 0,-2.2 0.64,-4 0.64,-1.8 1.76,-3.04 1.16,-1.28 2.76,-1.96 1.64,-0.68 3.64,-0.68 1.72,0 3.08,0.6 1.4,0.56 2.4,1.64 1,1.08 1.52,2.6 0.56,1.52 0.56,3.36 z m -2.88,-2.08 q 0,-1.12 -0.28,-2.12 -0.28,-1.04 -0.88,-1.8 -0.56,-0.8 -1.48,-1.24 -0.92,-0.48 -2.2,-0.48 -2.32,0 -3.84,1.52 -1.48,1.52 -1.8,4.16 z" />
        <path
           inkscape:connector-curvature="0"
           id="path4193"
           style="font-style:normal;font-variant:normal;font-weight:300;font-stretch:normal;font-family:'Ek Mukta';-inkscape-font-specification:'Ek Mukta Light';fill:#2c89a0;fill-opacity:1"
           d="m 566.76936,645.36218 v -18.8 h 2 l 0.52,3.76 q 0.68,-1.8 2.28,-2.88 1.6,-1.12 3.64,-1.12 1,0 1.72,0.16 0.72,0.16 1.16,0.36 l -0.52,2.48 q -0.48,-0.24 -1.08,-0.4 -0.6,-0.16 -1.4,-0.16 -1.16,0 -2.16,0.44 -1,0.4 -1.76,1.2 -0.76,0.8 -1.2,2.04 -0.44,1.24 -0.44,2.84 v 10.08 z" />
        <path
           inkscape:connector-curvature="0"
           id="path4195"
           style="font-style:normal;font-variant:normal;font-weight:300;font-stretch:normal;font-family:'Ek Mukta';-inkscape-font-specification:'Ek Mukta Light';fill:#2c89a0;fill-opacity:1"
           d="m 597.70061,635.76218 q 0,2.36 -0.68,4.24 -0.68,1.84 -1.88,3.12 -1.2,1.28 -2.84,1.96 -1.6,0.64 -3.44,0.64 -1.88,0 -3.48,-0.6 -1.6,-0.64 -2.76,-1.84 -1.16,-1.24 -1.84,-3 -0.68,-1.8 -0.68,-4.12 0,-2.36 0.68,-4.2 0.72,-1.84 1.92,-3.08 1.2,-1.28 2.8,-1.92 1.64,-0.64 3.52,-0.64 1.84,0 3.44,0.6 1.6,0.6 2.76,1.8 1.16,1.2 1.8,2.96 0.68,1.76 0.68,4.08 z m -2.92,0.2 q 0,-1.96 -0.52,-3.36 -0.48,-1.44 -1.32,-2.32 -0.8,-0.92 -1.88,-1.32 -1.04,-0.44 -2.16,-0.44 -1.12,0 -2.2,0.4 -1.04,0.4 -1.88,1.28 -0.8,0.88 -1.32,2.32 -0.48,1.4 -0.48,3.44 0,2.04 0.48,3.48 0.52,1.44 1.36,2.36 0.84,0.88 1.92,1.32 1.08,0.4 2.2,0.4 1.12,0 2.16,-0.36 1.04,-0.4 1.84,-1.28 0.84,-0.92 1.32,-2.36 0.48,-1.44 0.48,-3.56 z" />
        <path
           inkscape:connector-curvature="0"
           id="path4197"
           style="font-style:normal;font-variant:normal;font-weight:300;font-stretch:normal;font-family:'Ek Mukta';-inkscape-font-specification:'Ek Mukta Light';fill:#2c89a0;fill-opacity:1"
           d="m 604.96186,645.36218 h -2.8 v -18.8 h 2.12 l 0.44,2.6 q 1.4,-1.32 2.92,-2.08 1.56,-0.76 3.56,-0.76 2.88,0 4.52,1.6 1.64,1.6 1.64,4.48 v 12.96 h -2.8 v -12.44 q 0,-1.88 -0.96,-3.08 -0.96,-1.24 -3.2,-1.24 -1.4,0 -2.84,0.72 -1.44,0.68 -2.6,1.96 z" />
        <path
           inkscape:connector-curvature="0"
           id="path4199"
           style="font-style:normal;font-variant:normal;font-weight:300;font-stretch:normal;font-family:'Ek Mukta';-inkscape-font-specification:'Ek Mukta Light';fill:#2c89a0;fill-opacity:1"
           d="m 622.09936,643.56218 q 0,-0.92 0.56,-1.52 0.6,-0.6 1.44,-0.6 0.84,0 1.4,0.6 0.6,0.6 0.6,1.52 0,1 -0.6,1.6 -0.56,0.56 -1.4,0.56 -0.84,0 -1.44,-0.56 -0.56,-0.6 -0.56,-1.6 z" />
        <path
           inkscape:connector-curvature="0"
           id="path4201"
           style="font-style:normal;font-variant:normal;font-weight:300;font-stretch:normal;font-family:'Ek Mukta';-inkscape-font-specification:'Ek Mukta Light';fill:#2c89a0;fill-opacity:1"
           d="m 633.00874,645.36218 h -2.8 v -18.8 h 2.12 l 0.44,2.6 q 1.4,-1.32 2.92,-2.08 1.56,-0.76 3.56,-0.76 2.88,0 4.52,1.6 1.64,1.6 1.64,4.48 v 12.96 h -2.8 v -12.44 q 0,-1.88 -0.96,-3.08 -0.96,-1.24 -3.2,-1.24 -1.4,0 -2.84,0.72 -1.44,0.68 -2.6,1.96 z" />
        <path
           inkscape:connector-curvature="0"
           id="path4203"
           style="font-style:normal;font-variant:normal;font-weight:300;font-stretch:normal;font-family:'Ek Mukta';-inkscape-font-specification:'Ek Mukta Light';fill:#2c89a0;fill-opacity:1"
           d="m 666.22624,636.16218 h -13.44 v 0.36 q 0,3.32 1.8,5.16 1.8,1.84 4.92,1.84 1.4,0 2.6,-0.2 1.2,-0.24 2.48,-0.76 l 0.6,2.08 q -1.12,0.48 -2.64,0.76 -1.48,0.32 -3.16,0.32 -1.96,0 -3.68,-0.56 -1.72,-0.56 -3.04,-1.72 -1.28,-1.2 -2.04,-3.04 -0.76,-1.84 -0.76,-4.4 0,-2.2 0.64,-4 0.64,-1.8 1.76,-3.04 1.16,-1.28 2.76,-1.96 1.64,-0.68 3.64,-0.68 1.72,0 3.08,0.6 1.4,0.56 2.4,1.64 1,1.08 1.52,2.6 0.56,1.52 0.56,3.36 z m -2.88,-2.08 q 0,-1.12 -0.28,-2.12 -0.28,-1.04 -0.88,-1.8 -0.56,-0.8 -1.48,-1.24 -0.92,-0.48 -2.2,-0.48 -2.32,0 -3.84,1.52 -1.48,1.52 -1.8,4.16 z" />
        <path
           inkscape:connector-curvature="0"
           id="path4205"
           style="font-style:normal;font-variant:normal;font-weight:300;font-stretch:normal;font-family:'Ek Mukta';-inkscape-font-specification:'Ek Mukta Light';fill:#2c89a0;fill-opacity:1"
           d="m 680.39749,628.68218 h -5.92 v 11.64 q 0,1.64 0.76,2.2 0.8,0.56 2.08,0.56 1,0 1.96,-0.2 0.96,-0.2 1.68,-0.44 l 0.44,2.12 q -0.8,0.32 -2,0.56 -1.2,0.24 -2.6,0.24 -5.12,0 -5.12,-4.68 v -12 h -3.08 v -2.12 h 3.08 v -6 h 2.8 v 6 h 5.92 z" />
      </g>
      <g
         style="font-style:normal;font-weight:normal;font-size:40px;line-height:125%;font-family:Sans;letter-spacing:0px;word-spacing:0px;fill:#2c89a0;fill-opacity:1;stroke:none;stroke-width:1px;stroke-linecap:butt;stroke-linejoin:miter;stroke-opacity:1"
         id="g4228"
         transform="translate(-8.0078201,185.80829)" />
    </g>
  </g>
</svg>
